<?xml version="1.0" standalone="no"?>
<!DOCTYPE svg PUBLIC "-//W3C//DTD SVG 20010904//EN"
 "http://www.w3.org/TR/2001/REC-SVG-20010904/DTD/svg10.dtd">
<svg version="1.0" xmlns="http://www.w3.org/2000/svg"
 width="200.000000pt" height="200.000000pt" viewBox="0 0 200.000000 200.000000"
 preserveAspectRatio="xMidYMid meet">
<metadata>
Created by potrace 1.11, written by Peter Selinger 2001-2013
</metadata>
<g transform="translate(0.000000,200.000000) scale(0.100000,-0.100000)"
fill="#000000" stroke="none">
<path d="M1131 1479 c-15 -19 -26 -26 -31 -20 -4 7 -11 2 -20 -13 -18 -35 -80
-82 -117 -90 -17 -4 -33 -15 -36 -25 -2 -10 -10 -18 -18 -19 -41 -5 -80 -15
-85 -24 -7 -12 37 -61 45 -51 11 15 56 32 83 31 34 -1 29 -11 -14 -28 -37 -15
-68 -39 -68 -52 0 -5 5 -6 10 -3 6 3 10 2 10 -4 0 -19 53 -37 90 -30 l35 6
-35 3 c-19 1 -27 4 -17 7 9 2 15 9 12 14 -8 11 -9 12 49 -6 47 -14 48 -14 33
3 -15 16 -13 17 29 15 35 -1 43 1 35 11 -8 9 -1 12 31 13 31 1 42 -3 45 -17 3
-12 11 -16 24 -13 10 3 16 10 12 16 -3 6 -1 7 6 3 6 -4 9 -11 6 -16 -3 -5 4
-14 16 -20 11 -7 18 -14 15 -17 -3 -4 0 -13 7 -21 9 -12 9 -14 0 -9 -7 5 -16
-1 -23 -13 -6 -11 -8 -20 -5 -20 3 0 -5 -11 -19 -25 -24 -24 -27 -63 -4 -49 6
4 5 10 -3 15 -11 7 -9 10 8 15 13 4 20 11 16 17 -3 6 -1 7 5 3 8 -4 12 0 12
11 0 15 2 16 10 3 6 -10 6 -16 0 -18 -6 -2 -10 -10 -10 -18 0 -8 -4 -14 -10
-14 -5 0 -10 -8 -10 -18 0 -11 -8 -26 -17 -34 -22 -19 -53 -20 -46 -1 4 10 -1
13 -20 9 -18 -3 -24 -1 -21 8 4 10 -3 12 -23 9 -50 -8 -75 -27 -104 -78 -20
-34 -29 -43 -29 -29 0 11 6 26 13 33 10 11 9 12 -1 6 -11 -6 -12 1 -8 29 7 44
-14 58 -44 31 -22 -20 -27 -65 -8 -65 7 0 3 -7 -9 -15 -14 -10 -32 -13 -53 -9
-28 6 -31 10 -25 33 8 31 7 31 33 36 12 2 38 16 59 30 25 18 30 25 16 20 -13
-3 -23 -3 -23 2 0 4 -39 8 -88 9 -48 0 -108 3 -134 8 -45 7 -47 8 -38 32 12
32 12 34 0 34 -5 0 -10 -9 -10 -19 0 -11 -4 -22 -10 -26 -10 -6 -6 47 4 64 4
5 -4 17 -16 25 -12 9 -17 16 -11 16 7 0 15 -4 18 -10 3 -5 11 -10 16 -10 6 0
7 5 4 10 -3 6 -1 10 5 10 6 0 8 -11 6 -25 -3 -14 -1 -23 5 -20 5 4 9 17 9 31
0 14 7 36 16 49 9 14 14 32 10 40 -3 9 -2 13 3 10 12 -7 25 31 16 45 -4 6 -1
9 7 8 7 -2 12 3 10 10 -1 8 2 11 8 7 6 -4 9 -13 6 -21 -9 -22 1 -16 23 14 l19
28 -41 -1 c-46 -2 -79 -13 -72 -25 2 -4 -6 -17 -19 -29 -16 -15 -26 -19 -31
-12 -4 8 -12 7 -25 -2 -25 -18 -69 -73 -50 -63 8 4 7 1 -3 -7 -10 -9 -17 -17
-16 -19 1 -1 -8 -24 -20 -50 -24 -54 -32 -56 -136 -46 -137 13 -205 35 -273
89 -23 18 -25 18 -60 -1 -20 -11 -42 -20 -50 -20 -14 0 13 -49 35 -63 7 -4 13
-19 13 -32 0 -14 5 -25 11 -25 6 0 9 -7 5 -15 -5 -15 9 -20 48 -16 16 1 17 -1
5 -16 -11 -13 -11 -15 -1 -9 11 7 13 -5 8 -60 -3 -38 -7 -80 -10 -94 -8 -41
-9 -143 -1 -167 4 -13 14 -24 21 -24 8 -1 20 -2 27 -3 22 -4 82 32 104 62 22
30 62 45 84 31 7 -4 19 -3 28 1 9 5 31 14 49 20 29 11 37 21 30 35 -2 2 6 10
16 18 12 9 16 19 11 28 -6 11 -5 11 5 2 7 -7 9 -17 4 -25 -5 -7 -10 -23 -12
-35 -3 -24 6 -27 55 -23 12 1 30 -4 40 -10 15 -9 14 -10 -7 -4 -20 5 -22 4
-13 -6 14 -15 6 -43 -10 -33 -6 3 -7 1 -3 -6 4 -6 10 -9 14 -7 12 7 43 -21 46
-41 2 -10 7 -18 12 -18 20 0 73 -49 79 -73 5 -21 8 -23 16 -11 5 7 9 11 10 7
1 -5 2 -11 3 -15 3 -18 18 -33 27 -27 5 3 6 10 3 16 -4 7 -2 8 5 4 6 -4 9 -12
6 -17 -4 -5 1 -9 10 -9 9 0 14 4 11 8 -2 4 4 8 15 8 12 0 18 -5 14 -14 -2 -7
-1 -11 4 -8 5 3 12 -1 15 -10 9 -23 7 -36 -4 -29 -5 3 -10 1 -10 -4 0 -6 5
-11 11 -11 5 0 8 -4 5 -8 -2 -4 4 -8 13 -8 18 0 18 2 0 44 -21 47 -25 68 -8
40 5 -10 16 -18 24 -18 9 0 12 -6 9 -15 -4 -8 -3 -23 2 -33 7 -16 9 -25 13
-64 0 -10 5 -18 10 -18 6 0 9 9 8 19 0 11 -5 17 -9 15 -4 -3 -8 -1 -8 5 0 14
20 25 21 12 1 -6 2 -16 3 -23 0 -6 7 -13 14 -16 8 -2 10 2 5 13 -5 15 -3 16
17 5 18 -9 21 -9 18 1 -2 7 -12 13 -23 15 -10 1 -21 7 -24 12 -3 4 -15 12 -25
15 -20 8 -17 17 6 21 7 1 19 5 26 10 8 5 19 3 25 -3 9 -9 8 -11 -5 -6 -10 4
-18 3 -18 -3 0 -6 16 -10 35 -9 19 1 35 4 35 7 0 3 10 5 23 5 12 1 39 4 60 9
27 5 37 4 32 -3 -3 -6 -3 -11 1 -11 9 0 44 41 44 51 0 4 9 6 19 4 12 -2 39 11
66 32 43 32 47 34 59 17 17 -22 33 -12 41 27 6 27 10 30 35 24 19 -4 33 -1 44
11 16 15 18 15 30 -1 7 -10 18 -15 25 -11 8 5 7 11 -4 22 -8 9 -15 21 -15 27
0 7 -9 18 -19 24 -15 10 -20 9 -25 -2 -2 -7 0 -16 7 -18 8 -3 4 -13 -10 -28
-13 -13 -23 -18 -23 -12 0 6 7 14 16 17 8 3 12 10 9 16 -4 6 -11 7 -17 4 -7
-4 -7 -1 0 12 25 46 41 59 74 60 68 3 70 3 63 23 -4 14 3 24 29 39 31 18 34
25 31 56 -3 40 11 49 20 13 7 -28 -6 -65 -35 -95 -35 -37 -27 -45 93 -92 93
-36 147 -26 178 31 5 10 11 52 14 96 3 43 8 98 11 123 3 25 5 56 5 69 -1 13 3
29 8 35 5 6 18 28 30 49 l22 39 -23 -8 c-97 -30 -228 -122 -228 -160 0 -8 -4
-14 -10 -14 -5 0 -10 4 -10 10 0 20 -36 29 -63 15 -24 -12 -28 -12 -36 3 -8
14 -11 14 -26 2 -14 -12 -18 -12 -26 1 -5 8 -6 28 -3 44 3 17 6 37 8 45 4 26
17 41 29 33 7 -3 3 3 -7 15 -11 12 -15 22 -10 22 5 0 1 5 -9 11 -11 7 -16 18
-13 34 3 14 0 27 -5 31 -5 3 -7 10 -4 15 4 5 0 9 -7 9 -10 0 -10 2 1 9 9 6 10
11 2 15 -6 4 -9 11 -6 15 2 5 -6 7 -18 6 -20 -2 -23 2 -22 32 1 18 -3 37 -8
40 -6 3 -7 1 -3 -5 4 -7 2 -12 -3 -12 -6 0 -11 5 -11 10 0 6 -4 10 -10 10 -5
0 -23 13 -40 30 -17 16 -43 32 -58 36 -15 3 -34 8 -42 12 -16 6 -29 8 -69 11
-24 1 -24 1 -5 16 19 15 19 15 -1 12 -11 -1 -27 -7 -35 -12 -8 -5 -21 -10 -29
-12 -8 -1 -17 -6 -20 -12 -4 -5 -19 -15 -35 -21 -28 -10 -28 -9 12 34 23 25
42 52 42 61 0 20 -1 19 -29 -16z m-495 -277 c-18 -16 -18 -16 -6 6 6 13 14 21
18 18 3 -4 -2 -14 -12 -24z m313 24 c-2 -2 -15 -9 -29 -15 -24 -11 -24 -11 -6
3 16 13 49 24 35 12z m351 -41 c0 -2 -9 -3 -20 -2 -11 1 -20 7 -20 14 0 11 5
11 20 3 11 -6 20 -13 20 -15z m-3 -37 c-3 -8 -6 -5 -6 6 -1 11 2 17 5 13 3 -3
4 -12 1 -19z m-647 -17 c0 -6 -4 -13 -10 -16 -5 -3 -10 1 -10 9 0 9 5 16 10
16 6 0 10 -4 10 -9z m-10 -40 c0 -6 -4 -12 -8 -15 -5 -3 -9 1 -9 9 0 8 4 15 9
15 4 0 8 -4 8 -9z m-112 -23 c-18 -29 -24 -118 -7 -118 7 0 5 -8 -6 -20 -17
-18 -20 -19 -28 -5 -7 14 -12 13 -38 -6 l-31 -21 5 31 c9 54 -34 77 -91 47
-41 -21 -65 -53 -68 -89 -2 -18 -7 -48 -12 -67 -5 -20 -8 -43 -6 -53 1 -9 -2
-15 -7 -12 -9 6 -5 208 5 224 9 14 68 28 151 35 39 4 72 11 74 17 2 6 15 15
29 20 20 8 23 12 13 19 -11 6 -10 9 5 13 10 2 21 5 23 6 2 0 -3 -9 -11 -21z
m807 -58 c3 -6 -1 -7 -9 -4 -18 7 -21 14 -7 14 6 0 13 -4 16 -10z m-10 -30
c-3 -5 -10 -10 -16 -10 -5 0 -9 5 -9 10 0 6 7 10 16 10 8 0 12 -4 9 -10z
m-631 -46 c-2 -45 -5 -52 -20 -50 -20 3 -47 73 -30 79 21 7 51 -10 50 -29z
m480 20 c3 -8 2 -13 -3 -9 -5 3 -21 -9 -35 -26 -17 -20 -26 -25 -26 -15 0 9 5
16 10 16 6 0 16 11 22 25 13 29 23 32 32 9z m136 -9 c11 -30 20 -33 15 -5 -2
11 1 23 7 26 7 4 8 2 4 -4 -4 -7 -3 -12 2 -12 7 0 8 -31 2 -50 -1 -3 -2 -22
-2 -43 0 -20 -5 -40 -11 -44 -6 -3 -7 -1 -3 5 5 8 -1 12 -17 12 -32 0 -37 7
-27 40 6 19 4 34 -5 46 -10 14 -10 22 -1 36 15 25 25 23 36 -7z m493 -15 c-3
-11 -9 -23 -14 -26 -10 -6 -12 29 -2 39 13 13 21 7 16 -13z m-1021 -45 c-7
-37 -20 -40 -18 -5 0 17 6 30 12 30 7 0 9 -10 6 -25z m428 -23 c0 -5 -7 -23
-16 -41 -21 -43 -12 -65 24 -58 21 4 31 1 41 -15 8 -12 9 -23 3 -27 -5 -3 -8
-14 -6 -24 2 -14 -1 -16 -11 -7 -10 8 -14 7 -18 -2 -2 -7 -7 -10 -11 -7 -3 3
5 18 18 32 14 15 21 27 15 27 -5 0 -20 -11 -32 -23 -28 -30 -81 -42 -97 -22
-7 8 -16 12 -21 9 -5 -3 -9 0 -9 6 0 16 -42 29 -62 18 -10 -5 -18 -15 -18 -23
0 -8 -5 -15 -11 -15 -5 0 -7 5 -4 10 4 6 -15 -1 -40 -16 -26 -14 -44 -21 -41
-15 4 6 2 11 -4 11 -7 0 -26 15 -43 33 -25 26 -28 27 -16 7 19 -35 21 -64 3
-49 -16 13 -19 23 -4 14 6 -3 10 -2 10 4 0 17 -22 24 -31 10 -7 -10 -8 -9 -6
6 8 41 19 56 32 45 14 -12 70 -6 118 12 19 7 31 7 40 0 10 -9 23 -6 50 8 45
24 45 24 43 3 0 -10 7 -19 17 -21 12 -3 22 9 37 43 11 26 20 53 20 61 0 8 7
14 15 14 8 0 15 -4 15 -8z m346 -17 c-4 -24 -16 -30 -16 -7 0 12 4 22 9 22 5
0 8 -7 7 -15z m225 -83 c-8 -7 -24 -9 -35 -5 -12 3 -29 6 -39 5 -10 0 -21 6
-24 15 -8 21 24 44 52 37 14 -3 28 0 36 9 12 13 15 11 20 -17 3 -21 0 -35 -10
-44z m-921 43 c0 -8 -2 -15 -4 -15 -2 0 -6 7 -10 15 -3 8 -1 15 4 15 6 0 10
-7 10 -15z m-228 -40 c0 -5 -5 -10 -11 -11 -8 -2 -7 -1 0 3 8 4 7 8 -2 15 -11
8 -11 9 -1 6 8 -2 14 -8 14 -13z m410 -67 c-7 -7 -12 -8 -12 -2 0 14 12 26 19
19 2 -3 -1 -11 -7 -17z m-236 0 c3 -4 -1 -5 -10 -4 -8 1 -18 5 -22 8 -3 4 1 5
10 4 8 -1 18 -5 22 -8z m319 -47 c3 -5 2 -12 -3 -15 -5 -3 -9 1 -9 9 0 17 3
19 12 6z m-175 -7 c0 -8 -19 -13 -24 -6 -3 5 1 9 9 9 8 0 15 -2 15 -3z m200
-24 c0 -5 -2 -10 -4 -10 -3 0 -8 5 -11 10 -3 6 -1 10 4 10 6 0 11 -4 11 -10z
m-72 -137 c-5 -7 -14 -10 -19 -7 -16 10 -9 23 10 21 15 -1 17 -4 9 -14z m67
-1 c-3 -3 -11 0 -18 7 -9 10 -8 11 6 5 10 -3 15 -9 12 -12z m-210 -2 c-3 -5
-12 -10 -18 -10 -7 0 -6 4 3 10 19 12 23 12 15 0z"/>
<path d="M658 928 c2 -10 9 -21 15 -25 6 -3 7 -1 3 6 -4 6 -2 18 4 26 9 11 8
14 -8 12 -13 -1 -18 -7 -14 -19z"/>
<path d="M1320 910 c-9 -6 -10 -10 -3 -10 6 0 15 5 18 10 8 12 4 12 -15 0z"/>
<path d="M1296 875 c-3 -8 3 -19 13 -25 16 -8 19 -7 16 8 -2 9 -4 20 -4 25 -2
13 -19 8 -25 -8z"/>
<path d="M890 1493 c-14 -2 -32 -7 -40 -10 -8 -3 -19 -5 -23 -4 -5 1 -6 -3 -2
-9 3 -6 12 -7 18 -4 8 5 8 3 0 -7 -7 -7 -13 -22 -13 -33 1 -20 1 -20 13 2 7
12 17 19 22 15 4 -4 6 -3 2 2 -3 6 2 16 12 22 15 9 18 8 17 -5 0 -9 4 -18 9
-18 6 -1 9 2 8 7 -2 5 2 9 7 9 6 0 10 -4 10 -9 0 -5 8 -12 17 -15 16 -6 16 -6
0 12 -19 21 -23 37 -5 26 7 -4 8 -3 4 5 -6 9 -11 9 -24 -1 -13 -11 -15 -10 -9
5 3 9 5 16 4 16 -1 -1 -13 -4 -27 -6z"/>
<path d="M804 1449 c-3 -6 -1 -15 5 -20 6 -5 9 -6 6 -3 -3 4 0 13 6 21 8 9 8
13 1 13 -6 0 -14 -5 -18 -11z"/>
<path d="M910 1409 c-12 -22 -8 -35 9 -25 6 4 7 14 4 23 -4 11 -3 14 5 9 7 -4
12 -2 12 3 0 18 -19 12 -30 -10z"/>
<path d="M787 1403 c-12 -11 -8 -23 8 -23 8 0 15 -5 15 -11 0 -17 23 -5 26 15
2 14 0 15 -12 5 -11 -9 -14 -8 -14 5 0 16 -12 21 -23 9z"/>
<path d="M670 1330 c-8 -5 -12 -12 -9 -15 4 -3 12 1 19 10 14 17 11 19 -10 5z"/>
<path d="M598 1285 c-47 -34 -64 -53 -55 -61 2 -2 22 13 44 35 22 21 47 41 54
43 8 3 12 8 9 11 -3 3 -26 -10 -52 -28z"/>
<path d="M1621 1224 c-67 -28 -27 -106 53 -103 23 1 75 1 116 0 91 -2 117 3
144 28 12 10 32 22 46 26 l25 8 -30 10 c-16 5 -38 16 -48 25 -22 19 -262 24
-306 6z"/>
<path d="M507 1184 c-26 -35 -17 -38 11 -3 13 16 20 29 15 29 -4 0 -16 -12
-26 -26z"/>
<path d="M1174 1015 c-11 -22 -10 -23 7 -12 20 13 24 23 11 31 -4 2 -12 -6
-18 -19z"/>
<path d="M580 666 c0 -2 7 -7 16 -10 8 -3 12 -2 9 4 -6 10 -25 14 -25 6z"/>
<path d="M1250 450 c0 -6 7 -10 15 -10 8 0 15 2 15 4 0 2 -7 6 -15 10 -8 3
-15 1 -15 -4z"/>
</g>
</svg>
